# xmcd CD database file
#
# Track frame offsets:
#	187
#	22522
#	37327
#	50890
#	62457
#	73377
#	85695
#	99450
#	113740
#	127387
#	140815
#	159322
#	177042
#	192232
#	206127
#	223350
#
# Disc length: 3169 seconds
#
# Revision: 0
# Processed by: cddbd v1.5PL3 Copyright (c) Steve Scherf et al.
# Submitted via: CDex 1.50
#
DISCID=f60c5f10
DTITLE=Helen Merrill - Helen Merrill
DYEAR=1900
DGENRE=Jazz
TTITLE0=You'd Be So Nice To Come Home To
TTITLE1=Summertime In Venice
TTITLE2=Fly Me To The Moon
TTITLE3=Autumn Leaves
TTITLE4=My Funny Valentine
TTITLE5=Pennies From Heaven
TTITLE6=The Boy From Ipanema
TTITLE7=Mack The Knife
TTITLE8=Romance
TTITLE9=Plaisir D'amour
TTITLE10=Yeah Lei Shang
TTITLE11=September Song
TTITLE12=No Other Love
TTITLE13=La Chanson D'orphee
TTITLE14=Charade
TTITLE15=Goodbye
EXTD=
EXTT0=
EXTT1=
EXTT2=
EXTT3=
EXTT4=
EXTT5=
EXTT6=
EXTT7=
EXTT8=
EXTT9=
EXTT10=
EXTT11=
EXTT12=
EXTT13=
EXTT14=
EXTT15=
PLAYORDER=
